<svg width="44" height="44" viewBox="0 0 44 44" fill="none" xmlns="http://www.w3.org/2000/svg">
<path d="M0 0H44V44H0V0Z" fill="#1AAA11"/>
<path d="M35.3828 5.27734L39.2719 9.16643L9.71484 38.7235L5.82575 34.8344L35.3828 5.27734Z" fill="#FAFAFA"/>
<path d="M30.7969 22.5508C30.7969 17.9944 27.1032 14.3008 22.5469 14.3008C17.9905 14.3008 14.2969 17.9944 14.2969 22.5508C14.2969 27.1071 17.9905 30.8008 22.5469 30.8008V36.3008C14.953 36.3008 8.79688 30.1447 8.79688 22.5508C8.79688 14.9569 14.953 8.80078 22.5469 8.80078C30.1408 8.80078 36.2969 14.9569 36.2969 22.5508C36.2969 30.1447 30.1408 36.3008 22.5469 36.3008V30.8008C27.1032 30.8008 30.7969 27.1071 30.7969 22.5508Z" fill="#FAFAFA"/>
<path d="M0 20.8984H44V21.9984H0V20.8984Z" fill="#1AAA11"/>
</svg>
