<svg width="44" height="44" viewBox="0 0 44 44" fill="none" xmlns="http://www.w3.org/2000/svg">
<path d="M4.93691 28.1939L41.2217 0L30.8874 22.0684L42.2059 22.752L27.9347 42.1678L1.32812 44L17.6661 29.3424L4.93691 28.1939Z" fill="#FFFF11"/>
<path d="M30.8874 22.0684L42.2059 22.752L27.9347 42.1678L1.32812 44L17.6661 29.3424L4.93691 28.1939L41.2217 0L30.8874 22.0684ZM10.3242 26.6995L22.6015 27.8073L7.20574 41.6196L26.5464 40.2878L38.1641 24.482L27.5225 23.8392L35.254 7.32867L10.3242 26.6995Z" fill="#FF7F11"/>
<path d="M7.82812 16.5195L43.1839 11.372L43.993 15.2331L8.63723 20.3807L7.82812 16.5195Z" fill="#77CAFF"/>
<path d="M0 34.0391L43.5896 31.082L44 35.6567L0.410402 38.6137L0 34.0391Z" fill="#77CAFF"/>
</svg>
