<svg width="100" height="100" viewBox="0 0 100 100" fill="none" xmlns="http://www.w3.org/2000/svg">
<rect x="66.125" y="39.0625" width="3.125" height="21.875" fill="#1AAA11"/>
<rect x="31.75" y="39.0625" width="3.125" height="21.875" fill="#1AAA11"/>
<path fill-rule="evenodd" clip-rule="evenodd" d="M31.75 46.25V87.5L54.1133 67.3731L31.75 35.9533V46.25ZM46.2465 33.2031L64.9531 57.6172L69.25 53.75V12.5L46.2465 33.2031Z" fill="#1AAA11"/>
<path d="M69.25 60.5042V15.625V12.5L43.4401 27.4647L50.5 36.5021L69.25 60.5042Z" fill="#1AAA11"/>
<path d="M31.75 87.5L56.5494 73.0047L49.5135 63.4979L31.75 87.5Z" fill="#1AAA11"/>
<path fill-rule="evenodd" clip-rule="evenodd" d="M31.75 12.5L43.4401 27.4647L50.5 36.5021L69.25 60.5042V65.5812L30.2256 15.625H16.125V84.375V87.5H13V12.5H31.75ZM84.875 15.625V84.375H68.8517L31.75 34.2427V39.4959L49.5135 63.4979L56.5494 73.0047L67.277 87.5H88V12.5H84.875V15.625Z" fill="#1AAA11"/>
</svg>
